<svg width="34" height="37" viewBox="0 0 34 37" fill="none" xmlns="http://www.w3.org/2000/svg">
<g clip-path="url(#clip0_20_34)">
<path d="M29.9887 2.3125H4.23974C3.30851 2.3125 2.41541 2.67796 1.75693 3.32847C1.09845 3.97899 0.728516 4.86128 0.728516 5.78125L0.728516 31.2188C0.728516 32.1387 1.09845 33.021 1.75693 33.6715C2.41541 34.322 3.30851 34.6875 4.23974 34.6875H14.2796V23.6807H9.67117V18.5H14.2796V14.5514C14.2796 10.0601 16.9862 7.57922 21.1317 7.57922C23.117 7.57922 25.193 7.92898 25.193 7.92898V12.3372H22.9056C20.6518 12.3372 19.9488 13.7189 19.9488 15.136V18.5H24.9801L24.1754 23.6807H19.9488V34.6875H29.9887C30.92 34.6875 31.813 34.322 32.4715 33.6715C33.13 33.021 33.4999 32.1387 33.4999 31.2188V5.78125C33.4999 4.86128 33.13 3.97899 32.4715 3.32847C31.813 2.67796 30.92 2.3125 29.9887 2.3125Z" fill="#7C7A7A"/>
</g>
<defs>
<clipPath id="clip0_20_34">
<rect width="32.7714" height="37" fill="white" transform="translate(0.728516)"/>
</clipPath>
</defs>
</svg>
