<svg width="36" height="37" viewBox="0 0 36 37" fill="none" xmlns="http://www.w3.org/2000/svg">
<g clip-path="url(#clip0_20_40)">
<path d="M17.9499 0.578125C8.17053 0.578125 0.242798 8.60199 0.242798 18.5C0.242798 28.398 8.17053 36.4219 17.9499 36.4219C27.7294 36.4219 35.6571 28.398 35.6571 18.5C35.6571 8.60199 27.7294 0.578125 17.9499 0.578125ZM26.1575 12.7664C25.891 15.6003 24.738 22.4774 24.1511 25.6514C23.903 26.9944 23.4142 27.4447 22.9411 27.4888C21.9129 27.5846 21.1319 26.801 20.136 26.1402C18.5775 25.1062 17.6971 24.4626 16.1843 23.4536C14.4361 22.2876 15.5694 21.6469 16.5657 20.5991C16.8265 20.325 21.3571 16.154 21.4448 15.7757C21.4557 15.7283 21.4662 15.5516 21.3624 15.4588C21.2586 15.3661 21.1061 15.3975 20.9958 15.4227C20.8395 15.4587 18.3498 17.1242 13.5268 20.4193C12.8202 20.9104 12.1801 21.1497 11.6066 21.1372C10.9743 21.1234 9.75817 20.7754 8.85404 20.4779C7.74513 20.1131 6.86377 19.9202 6.94052 19.3006C6.98051 18.9778 7.41962 18.6478 8.25785 18.3106C13.4199 16.0343 16.862 14.5336 18.5843 13.8084C23.5017 11.7382 24.5235 11.3787 25.1895 11.3667C25.336 11.3642 25.6635 11.4009 25.8757 11.5751C26.0168 11.6993 26.1067 11.8725 26.1277 12.0605C26.1637 12.2939 26.1736 12.5307 26.1575 12.7664Z" fill="#7C7A7A"/>
</g>
<defs>
<clipPath id="clip0_20_40">
<rect width="35.4143" height="37" fill="white" transform="translate(0.242798)"/>
</clipPath>
</defs>
</svg>
