<svg width="37" height="37" viewBox="0 0 37 37" fill="none" xmlns="http://www.w3.org/2000/svg">
<g clip-path="url(#clip0_20_36)">
<path d="M32.7224 10.9638C32.7456 11.2924 32.7456 11.6212 32.7456 11.9498C32.7456 21.9745 25.2246 33.5253 11.4783 33.5253C7.24335 33.5253 3.30928 32.281 0 30.1212C0.601707 30.1916 1.18019 30.2151 1.80505 30.2151C5.2994 30.2151 8.51615 29.0178 11.0849 26.9752C7.79876 26.9048 5.04488 24.7214 4.09605 21.7163C4.55893 21.7867 5.02173 21.8337 5.50776 21.8337C6.17884 21.8337 6.85 21.7397 7.47479 21.5755C4.04982 20.8711 1.48101 17.8191 1.48101 14.1332V14.0393C2.47607 14.6028 3.63325 14.9549 4.85968 15.0018C2.84634 13.6401 1.52731 11.3159 1.52731 8.68648C1.52731 7.27788 1.89751 5.98663 2.54552 4.85972C6.22507 9.46124 11.756 12.4663 17.9579 12.795C17.8422 12.2315 17.7728 11.6447 17.7728 11.0577C17.7728 6.87875 21.1052 3.47461 25.2476 3.47461C27.3997 3.47461 29.3436 4.39021 30.709 5.86928C32.3983 5.54061 34.0182 4.9067 35.4531 4.03806C34.8976 5.79889 33.7174 7.27795 32.1669 8.21697C33.6712 8.05271 35.1291 7.63003 36.4713 7.04316C35.4532 8.54563 34.1804 9.88378 32.7224 10.9638Z" fill="#7C7A7A"/>
</g>
<defs>
<clipPath id="clip0_20_36">
<rect width="36.4714" height="37" fill="white"/>
</clipPath>
</defs>
</svg>
