<svg width="34" height="37" viewBox="0 0 34 37" fill="none" xmlns="http://www.w3.org/2000/svg">
<g clip-path="url(#clip0_20_38)">
<path d="M28.8345 7.01699C25.7695 3.98184 21.6877 2.3125 17.3498 2.3125C8.39621 2.3125 1.11042 9.51016 1.11042 18.3555C1.11042 21.1811 1.85656 23.9416 3.27568 26.377L0.971436 34.6875L9.58125 32.4545C11.9513 33.7336 14.6213 34.4057 17.3425 34.4057H17.3498C26.2961 34.4057 33.7429 27.208 33.7429 18.3627C33.7429 14.0773 31.8995 10.0521 28.8345 7.01699ZM17.3498 31.7029C14.9212 31.7029 12.5438 31.0598 10.4737 29.8457L9.98358 29.5566L4.87767 30.8791L6.23827 25.9578L5.91641 25.452C4.56313 23.3273 3.85357 20.8775 3.85357 18.3555C3.85357 11.0061 9.91043 5.02246 17.3571 5.02246C20.9635 5.02246 24.3503 6.40996 26.896 8.93203C29.4416 11.4541 31.007 14.8 30.9997 18.3627C30.9997 25.7193 24.7892 31.7029 17.3498 31.7029ZM24.7527 21.7158C24.3503 21.5135 22.3533 20.5451 21.9803 20.415C21.6072 20.2777 21.3365 20.2127 21.0659 20.6174C20.7952 21.0221 20.0198 21.9182 19.7784 22.1928C19.5443 22.4602 19.303 22.4963 18.9006 22.2939C16.5159 21.116 14.9505 20.191 13.3778 17.5244C12.9608 16.8162 13.7947 16.8668 14.5701 15.3348C14.7018 15.0674 14.636 14.8361 14.5335 14.6338C14.4311 14.4314 13.6192 12.4586 13.2827 11.6564C12.9535 10.876 12.617 10.9844 12.3683 10.9699C12.1342 10.9555 11.8635 10.9555 11.5929 10.9555C11.3222 10.9555 10.8833 11.0566 10.5103 11.4541C10.1372 11.8588 9.09114 12.8271 9.09114 14.8C9.09114 16.7729 10.5468 18.6807 10.7443 18.948C10.9492 19.2154 13.6045 23.2623 17.679 25.0039C20.2539 26.1023 21.2634 26.1963 22.5508 26.0084C23.3335 25.8928 24.9502 25.04 25.2867 24.1006C25.6232 23.1611 25.6232 22.359 25.5207 22.1928C25.4257 22.0121 25.155 21.9109 24.7527 21.7158Z" fill="#7C7A7A"/>
</g>
<defs>
<clipPath id="clip0_20_38">
<rect width="32.7714" height="37" fill="white" transform="translate(0.971436)"/>
</clipPath>
</defs>
</svg>
