<svg width="42" height="37" viewBox="0 0 42 37" fill="none" xmlns="http://www.w3.org/2000/svg">
<path d="M39.3428 8.96694C38.8933 7.25785 37.5687 5.91183 35.8868 5.45504C32.8383 4.625 20.6143 4.625 20.6143 4.625C20.6143 4.625 8.39028 4.625 5.34173 5.45504C3.65988 5.91191 2.33527 7.25785 1.88569 8.96694C1.06885 12.0647 1.06885 18.528 1.06885 18.528C1.06885 18.528 1.06885 24.9913 1.88569 28.0891C2.33527 29.7982 3.65988 31.0882 5.34173 31.545C8.39028 32.375 20.6143 32.375 20.6143 32.375C20.6143 32.375 32.8383 32.375 35.8868 31.545C37.5687 31.0882 38.8933 29.7982 39.3428 28.0891C40.1597 24.9913 40.1597 18.528 40.1597 18.528C40.1597 18.528 40.1597 12.0647 39.3428 8.96694ZM16.6163 24.3962V12.6599L26.8332 18.5282L16.6163 24.3962Z" fill="#7C7A7A"/>
</svg>
