<svg width="33" height="37" viewBox="0 0 33 37" fill="none" xmlns="http://www.w3.org/2000/svg">
<g clip-path="url(#clip0_11_8)">
<path d="M29.3316 2.3125H3.58264C2.6514 2.3125 1.75831 2.67796 1.09982 3.32847C0.441343 3.97899 0.0714111 4.86128 0.0714111 5.78125L0.0714111 31.2188C0.0714111 32.1387 0.441343 33.021 1.09982 33.6715C1.75831 34.322 2.6514 34.6875 3.58264 34.6875H13.6225V23.6807H9.01406V18.5H13.6225V14.5514C13.6225 10.0601 16.3291 7.57922 20.4746 7.57922C22.4599 7.57922 24.5359 7.92898 24.5359 7.92898V12.3372H22.2485C19.9947 12.3372 19.2917 13.7189 19.2917 15.136V18.5H24.323L23.5183 23.6807H19.2917V34.6875H29.3316C30.2628 34.6875 31.1559 34.322 31.8144 33.6715C32.4729 33.021 32.8428 32.1387 32.8428 31.2188V5.78125C32.8428 4.86128 32.4729 3.97899 31.8144 3.32847C31.1559 2.67796 30.2628 2.3125 29.3316 2.3125Z" fill="#CBCBCB"/>
</g>
<defs>
<clipPath id="clip0_11_8">
<rect width="32.7714" height="37" fill="white" transform="translate(0.0714111)"/>
</clipPath>
</defs>
</svg>
