<svg width="36" height="37" viewBox="0 0 36 37" fill="none" xmlns="http://www.w3.org/2000/svg">
<g clip-path="url(#clip0_11_10)">
<path d="M18.2928 0.578125C8.51342 0.578125 0.585693 8.60199 0.585693 18.5C0.585693 28.398 8.51342 36.4219 18.2928 36.4219C28.0722 36.4219 36 28.398 36 18.5C36 8.60199 28.0722 0.578125 18.2928 0.578125ZM26.5004 12.7664C26.2339 15.6003 25.0809 22.4774 24.494 25.6514C24.2459 26.9944 23.7571 27.4447 23.284 27.4888C22.2558 27.5846 21.4748 26.801 20.4789 26.1402C18.9204 25.1062 18.04 24.4626 16.5272 23.4536C14.779 22.2876 15.9123 21.6469 16.9086 20.5991C17.1694 20.325 21.7 16.154 21.7877 15.7757C21.7986 15.7283 21.8091 15.5516 21.7053 15.4588C21.6015 15.3661 21.449 15.3975 21.3387 15.4227C21.1824 15.4587 18.6927 17.1242 13.8697 20.4193C13.1631 20.9104 12.523 21.1497 11.9495 21.1372C11.3172 21.1234 10.1011 20.7754 9.19693 20.4779C8.08802 20.1131 7.20666 19.9202 7.28342 19.3006C7.3234 18.9778 7.76251 18.6478 8.60075 18.3106C13.7628 16.0343 17.2049 14.5336 18.9272 13.8084C23.8446 11.7382 24.8664 11.3787 25.5324 11.3667C25.6789 11.3642 26.0064 11.4009 26.2186 11.5751C26.3597 11.6993 26.4496 11.8725 26.4706 12.0605C26.5066 12.2939 26.5165 12.5307 26.5004 12.7664Z" fill="#CBCBCB"/>
</g>
<defs>
<clipPath id="clip0_11_10">
<rect width="35.4143" height="37" fill="white" transform="translate(0.585693)"/>
</clipPath>
</defs>
</svg>
