<svg width="37" height="37" viewBox="0 0 37 37" fill="none" xmlns="http://www.w3.org/2000/svg">
<g clip-path="url(#clip0_11_2)">
<path d="M33.0653 10.9639C33.0885 11.2926 33.0885 11.6213 33.0885 11.95C33.0885 21.9747 25.5674 33.5255 11.8212 33.5255C7.58625 33.5255 3.65218 32.2811 0.342896 30.1213C0.944603 30.1917 1.52309 30.2152 2.14795 30.2152C5.64229 30.2152 8.85905 29.0179 11.4278 26.9754C8.14165 26.9049 5.38778 24.7215 4.43895 21.7165C4.90182 21.7868 5.36463 21.8338 5.85065 21.8338C6.52174 21.8338 7.1929 21.7399 7.81769 21.5756C4.39272 20.8712 1.82391 17.8192 1.82391 14.1333V14.0395C2.81896 14.6029 3.97615 14.9551 5.20257 15.002C3.18923 13.6403 1.87021 11.3161 1.87021 8.6866C1.87021 7.278 2.24041 5.98676 2.88842 4.85985C6.56797 9.46136 12.0989 12.4664 18.3008 12.7951C18.1851 12.2317 18.1157 11.6448 18.1157 11.0579C18.1157 6.87888 21.4481 3.47473 25.5905 3.47473C27.7426 3.47473 29.6865 4.39034 31.0519 5.8694C32.7412 5.54073 34.3611 4.90682 35.796 4.03819C35.2405 5.79901 34.0603 7.27807 32.5098 8.21709C34.0141 8.05283 35.472 7.63015 36.8142 7.04328C35.7961 8.54575 34.5232 9.8839 33.0653 10.9639Z" fill="#CBCBCB"/>
</g>
<defs>
<clipPath id="clip0_11_2">
<rect width="36.4714" height="37" fill="white" transform="translate(0.342896)"/>
</clipPath>
</defs>
</svg>
