<svg width="75" height="75" viewBox="0 0 75 75" fill="none" xmlns="http://www.w3.org/2000/svg">
<path d="M33.4717 21.6064C32.915 21.2695 32.2705 21.0938 31.6406 21.0938C29.6191 21.0938 28.125 22.749 28.125 24.6094V50.3906C28.125 52.2656 29.6353 53.9062 31.6406 53.9062C32.277 53.9062 32.9121 53.7334 33.4746 53.3902L54.5684 40.4996C55.6055 39.8584 56.25 38.7305 56.25 37.5C56.25 36.2755 55.6125 35.1387 54.5684 34.5L33.4717 21.6064ZM37.5 0C16.7871 0 0 16.7871 0 37.5C0 58.2129 16.7871 75 37.5 75C58.2129 75 75 58.2129 75 37.5C75 16.7871 58.2129 0 37.5 0ZM37.5 67.9688C20.6982 67.9688 7.03125 54.3003 7.03125 37.5C7.03125 20.6997 20.6982 7.03125 37.5 7.03125C54.3018 7.03125 67.9688 20.6997 67.9688 37.5C67.9688 54.3003 54.3018 67.9688 37.5 67.9688Z" fill="#CBCBCB"/>
</svg>
