<svg width="34" height="37" viewBox="0 0 34 37" fill="none" xmlns="http://www.w3.org/2000/svg">
<g clip-path="url(#clip0_11_4)">
<path d="M28.1774 7.01699C25.1124 3.98184 21.0306 2.3125 16.6927 2.3125C7.73911 2.3125 0.453317 9.51016 0.453317 18.3555C0.453317 21.1811 1.19945 23.9416 2.61857 26.377L0.314331 34.6875L8.92415 32.4545C11.2942 33.7336 13.9642 34.4057 16.6854 34.4057H16.6927C25.639 34.4057 33.0858 27.208 33.0858 18.3627C33.0858 14.0773 31.2424 10.0521 28.1774 7.01699ZM16.6927 31.7029C14.2641 31.7029 11.8867 31.0598 9.81658 29.8457L9.32647 29.5566L4.22057 30.8791L5.58117 25.9578L5.25931 25.452C3.90602 23.3273 3.19646 20.8775 3.19646 18.3555C3.19646 11.0061 9.25332 5.02246 16.7 5.02246C20.3064 5.02246 23.6932 6.40996 26.2389 8.93203C28.7845 11.4541 30.3499 14.8 30.3426 18.3627C30.3426 25.7193 24.1321 31.7029 16.6927 31.7029ZM24.0956 21.7158C23.6932 21.5135 21.6962 20.5451 21.3232 20.415C20.9501 20.2777 20.6794 20.2127 20.4088 20.6174C20.1381 21.0221 19.3627 21.9182 19.1213 22.1928C18.8872 22.4602 18.6458 22.4963 18.2435 22.2939C15.8588 21.116 14.2934 20.191 12.7207 17.5244C12.3037 16.8162 13.1376 16.8668 13.913 15.3348C14.0447 15.0674 13.9788 14.8361 13.8764 14.6338C13.774 14.4314 12.9621 12.4586 12.6256 11.6564C12.2964 10.876 11.9599 10.9844 11.7112 10.9699C11.4771 10.9555 11.2064 10.9555 10.9358 10.9555C10.6651 10.9555 10.2262 11.0566 9.85316 11.4541C9.48009 11.8588 8.43404 12.8271 8.43404 14.8C8.43404 16.7729 9.88973 18.6807 10.0872 18.948C10.2921 19.2154 12.9474 23.2623 17.0219 25.0039C19.5968 26.1023 20.6063 26.1963 21.8937 26.0084C22.6764 25.8928 24.2931 25.04 24.6296 24.1006C24.9661 23.1611 24.9661 22.359 24.8636 22.1928C24.7685 22.0121 24.4979 21.9109 24.0956 21.7158Z" fill="#CBCBCB"/>
</g>
<defs>
<clipPath id="clip0_11_4">
<rect width="32.7714" height="37" fill="white" transform="translate(0.314331)"/>
</clipPath>
</defs>
</svg>
