<svg width="42" height="37" viewBox="0 0 42 37" fill="none" xmlns="http://www.w3.org/2000/svg">
<path d="M39.6857 8.96694C39.2362 7.25785 37.9116 5.91183 36.2297 5.45504C33.1812 4.625 20.9572 4.625 20.9572 4.625C20.9572 4.625 8.73318 4.625 5.68463 5.45504C4.00277 5.91191 2.67816 7.25785 2.22858 8.96694C1.41174 12.0647 1.41174 18.528 1.41174 18.528C1.41174 18.528 1.41174 24.9913 2.22858 28.0891C2.67816 29.7982 4.00277 31.0882 5.68463 31.545C8.73318 32.375 20.9572 32.375 20.9572 32.375C20.9572 32.375 33.1811 32.375 36.2297 31.545C37.9116 31.0882 39.2362 29.7982 39.6857 28.0891C40.5026 24.9913 40.5026 18.528 40.5026 18.528C40.5026 18.528 40.5026 12.0647 39.6857 8.96694ZM16.9592 24.3962V12.6599L27.1761 18.5282L16.9592 24.3962Z" fill="#CBCBCB"/>
</svg>
